<svg width="34" height="34" viewBox="0 0 34 34" fill="none" xmlns="http://www.w3.org/2000/svg">
<path d="M11.3333 17L11.3333 11.3333C11.3333 8.20372 13.8704 5.66667 17 5.66667V5.66667C20.1296 5.66667 22.6666 8.20372 22.6666 11.3333L22.6666 17" stroke="#AFAFAF" stroke-width="2" stroke-linecap="round"/>
<path d="M5.36102 16.4178C5.50609 14.6769 5.57863 13.8065 6.15271 13.2782C6.7268 12.75 7.60027 12.75 9.3472 12.75H24.6528C26.3997 12.75 27.2732 12.75 27.8473 13.2782C28.4214 13.8065 28.4939 14.6769 28.639 16.4178L29.5695 27.5839C29.654 28.5974 29.6962 29.1042 29.3991 29.4271C29.102 29.75 28.5935 29.75 27.5764 29.75H6.4236C5.40655 29.75 4.89802 29.75 4.60092 29.4271C4.30382 29.1042 4.34605 28.5974 4.43051 27.5839L5.36102 16.4178Z" stroke="#AFAFAF" stroke-width="2"/>
</svg>
