<svg width="33" height="33" viewBox="0 0 33 33" fill="none" xmlns="http://www.w3.org/2000/svg">
<g clip-path="url(#clip0_5_191)">
<path d="M32.381 16.1905C32.381 7.24872 25.1322 0 16.1905 0C7.24872 0 0 7.24872 0 16.1905C0 24.2715 5.92059 30.9697 13.6607 32.1843V20.8705H9.54985V16.1905H13.6607V12.6235C13.6607 8.56577 16.0779 6.3244 19.7761 6.3244C21.5469 6.3244 23.4003 6.64062 23.4003 6.64062V10.625H21.3588C19.3476 10.625 18.7202 11.8731 18.7202 13.1548V16.1905H23.2106L22.4927 20.8705H18.7202V32.1843C26.4604 30.9697 32.381 24.2715 32.381 16.1905Z" fill="#777777"/>
</g>
<defs>
<clipPath id="clip0_5_191">
<rect width="32.381" height="32.381" fill="white"/>
</clipPath>
</defs>
</svg>
