<svg width="33" height="34" viewBox="0 0 33 34" fill="none" xmlns="http://www.w3.org/2000/svg">
<path d="M16.1905 3.66164C20.5164 3.66164 21.0286 3.68062 22.7299 3.75651C24.311 3.82608 25.1648 4.0917 25.734 4.31306C26.4866 4.60398 27.0305 4.95815 27.5934 5.52102C28.1626 6.09022 28.5104 6.62779 28.8013 7.38039C29.0227 7.94959 29.2883 8.80971 29.3579 10.3845C29.4338 12.0921 29.4528 12.6044 29.4528 16.9239C29.4528 21.2498 29.4338 21.7621 29.3579 23.4634C29.2883 25.0445 29.0227 25.8983 28.8013 26.4674C28.5104 27.2201 28.1562 27.764 27.5934 28.3268C27.0242 28.896 26.4866 29.2439 25.734 29.5348C25.1648 29.7561 24.3047 30.0218 22.7299 30.0913C21.0223 30.1672 20.51 30.1862 16.1905 30.1862C11.8646 30.1862 11.3523 30.1672 9.65104 30.0913C8.06994 30.0218 7.21615 29.7561 6.64695 29.5348C5.89435 29.2439 5.35045 28.8897 4.78757 28.3268C4.21838 27.7576 3.87054 27.2201 3.57961 26.4674C3.35826 25.8983 3.09263 25.0381 3.02307 23.4634C2.94717 21.7558 2.9282 21.2435 2.9282 16.9239C2.9282 12.598 2.94717 12.0858 3.02307 10.3845C3.09263 8.80338 3.35826 7.94959 3.57961 7.38039C3.87054 6.62779 4.2247 6.08389 4.78757 5.52102C5.35677 4.95182 5.89435 4.60398 6.64695 4.31306C7.21615 4.0917 8.07627 3.82608 9.65104 3.75651C11.3523 3.68062 11.8646 3.66164 16.1905 3.66164ZM16.1905 0.746094C11.795 0.746094 11.2448 0.765067 9.51823 0.84096C7.79799 0.916853 6.61533 1.19513 5.59077 1.59356C4.52195 2.01097 3.61756 2.5612 2.71949 3.46559C1.8151 4.36365 1.26488 5.26804 0.84747 6.33054C0.449033 7.36142 0.170759 8.53776 0.0948661 10.258C0.0189732 11.9909 0 12.5411 0 16.9366C0 21.332 0.0189732 21.8823 0.0948661 23.6088C0.170759 25.3291 0.449033 26.5117 0.84747 27.5363C1.26488 28.6051 1.8151 29.5095 2.71949 30.4076C3.61756 31.3056 4.52195 31.8622 5.58445 32.2733C6.61533 32.6717 7.79167 32.95 9.5119 33.0259C11.2385 33.1017 11.7887 33.1207 16.1842 33.1207C20.5796 33.1207 21.1298 33.1017 22.8564 33.0259C24.5766 32.95 25.7593 32.6717 26.7839 32.2733C27.8464 31.8622 28.7507 31.3056 29.6488 30.4076C30.5469 29.5095 31.1034 28.6051 31.5145 27.5426C31.9129 26.5117 32.1912 25.3354 32.2671 23.6151C32.343 21.8886 32.362 21.3384 32.362 16.9429C32.362 12.5474 32.343 11.9972 32.2671 10.2706C32.1912 8.55041 31.9129 7.36775 31.5145 6.34319C31.1161 5.26804 30.5659 4.36365 29.6615 3.46559C28.7634 2.56752 27.859 2.01097 26.7965 1.59989C25.7656 1.20145 24.5893 0.923177 22.869 0.847284C21.1362 0.765067 20.5859 0.746094 16.1905 0.746094Z" fill="#777777"/>
<path d="M16.1905 8.61987C11.5989 8.61987 7.87387 12.3449 7.87387 16.9365C7.87387 21.528 11.5989 25.2531 16.1905 25.2531C20.782 25.2531 24.5071 21.528 24.5071 16.9365C24.5071 12.3449 20.782 8.61987 16.1905 8.61987ZM16.1905 22.3312C13.2117 22.3312 10.7957 19.9153 10.7957 16.9365C10.7957 13.9577 13.2117 11.5417 16.1905 11.5417C19.1693 11.5417 21.5852 13.9577 21.5852 16.9365C21.5852 19.9153 19.1693 22.3312 16.1905 22.3312Z" fill="#777777"/>
<path d="M26.7775 8.29096C26.7775 9.36611 25.9048 10.2326 24.8359 10.2326C23.7608 10.2326 22.8943 9.35979 22.8943 8.29096C22.8943 7.21581 23.7671 6.34937 24.8359 6.34937C25.9048 6.34937 26.7775 7.22213 26.7775 8.29096Z" fill="#777777"/>
</svg>
