<svg width="33" height="33" viewBox="0 0 33 33" fill="none" xmlns="http://www.w3.org/2000/svg">
<g clip-path="url(#clip0_5_200)">
<path d="M29.984 0.619141H2.39062C1.06882 0.619141 0 1.66267 0 2.95285V30.6601C0 31.9502 1.06882 33.0001 2.39062 33.0001H29.984C31.3058 33.0001 32.381 31.9502 32.381 30.6664V2.95285C32.381 1.66267 31.3058 0.619141 29.984 0.619141ZM9.60677 28.2125H4.80022V12.7557H9.60677V28.2125ZM7.2035 10.6496C5.66034 10.6496 4.41443 9.40374 4.41443 7.86691C4.41443 6.33008 5.66034 5.08417 7.2035 5.08417C8.74033 5.08417 9.98623 6.33008 9.98623 7.86691C9.98623 9.39741 8.74033 10.6496 7.2035 10.6496ZM27.5934 28.2125H22.7932V20.6991C22.7932 18.9093 22.7615 16.6009 20.295 16.6009C17.7969 16.6009 17.4174 18.5552 17.4174 20.5726V28.2125H12.6235V12.7557H17.2277V14.868H17.2909C17.9297 13.6537 19.4981 12.3699 21.8318 12.3699C26.6953 12.3699 27.5934 15.57 27.5934 19.7315V28.2125Z" fill="#777777"/>
</g>
<defs>
<clipPath id="clip0_5_200">
<rect width="32.381" height="32.381" fill="white" transform="translate(0 0.619141)"/>
</clipPath>
</defs>
</svg>
