<svg width="69" height="34" viewBox="0 0 69 34" fill="none" xmlns="http://www.w3.org/2000/svg">
<path d="M11.3333 17L11.3333 11.3333C11.3333 8.20372 13.8703 5.66667 16.9999 5.66667V5.66667C20.1295 5.66667 22.6666 8.20372 22.6666 11.3333L22.6666 17" stroke="#12AAA1" stroke-width="2" stroke-linecap="round"/>
<path d="M5.36102 16.4178C5.50609 14.6769 5.57863 13.8065 6.15271 13.2782C6.7268 12.75 7.60027 12.75 9.3472 12.75H24.6528C26.3997 12.75 27.2732 12.75 27.8473 13.2782C28.4214 13.8065 28.4939 14.6769 28.639 16.4178L29.5695 27.5839C29.654 28.5974 29.6962 29.1042 29.3991 29.4271C29.102 29.75 28.5935 29.75 27.5764 29.75H6.4236C5.40655 29.75 4.89802 29.75 4.60092 29.4271C4.30382 29.1042 4.34605 28.5974 4.43051 27.5839L5.36102 16.4178Z" stroke="#12AAA1" stroke-width="2"/>
<path d="M23.5 20L20 21.5C20 21.5 22 23 23.5 23.5" stroke="#12AAA1"/>
<path d="M11 20L14.5 21.5C14.5 21.5 12.5 23 11 23.5" stroke="#12AAA1"/>
<path d="M32.224 21C32.144 21 32.076 20.972 32.02 20.916C31.964 20.86 31.936 20.792 31.936 20.712V12.9C31.936 12.812 31.964 12.74 32.02 12.684C32.076 12.628 32.144 12.6 32.224 12.6H37.432C37.52 12.6 37.592 12.628 37.648 12.684C37.704 12.74 37.732 12.812 37.732 12.9V13.74C37.732 13.828 37.704 13.9 37.648 13.956C37.592 14.004 37.52 14.028 37.432 14.028H33.58V16.308H37.192C37.28 16.308 37.352 16.336 37.408 16.392C37.464 16.448 37.492 16.52 37.492 16.608V17.448C37.492 17.528 37.464 17.596 37.408 17.652C37.352 17.708 37.28 17.736 37.192 17.736H33.58V20.712C33.58 20.792 33.552 20.86 33.496 20.916C33.44 20.972 33.368 21 33.28 21H32.224ZM39.3925 21C39.3125 21 39.2445 20.972 39.1885 20.916C39.1325 20.86 39.1045 20.792 39.1045 20.712V15.048C39.1045 14.968 39.1325 14.9 39.1885 14.844C39.2445 14.788 39.3125 14.76 39.3925 14.76H40.3885C40.4765 14.76 40.5445 14.788 40.5925 14.844C40.6485 14.9 40.6765 14.968 40.6765 15.048V20.712C40.6765 20.792 40.6485 20.86 40.5925 20.916C40.5445 20.972 40.4765 21 40.3885 21H39.3925ZM39.3445 13.728C39.2565 13.728 39.1845 13.704 39.1285 13.656C39.0805 13.6 39.0565 13.528 39.0565 13.44V12.576C39.0565 12.496 39.0805 12.428 39.1285 12.372C39.1845 12.316 39.2565 12.288 39.3445 12.288H40.4365C40.5245 12.288 40.5965 12.316 40.6525 12.372C40.7085 12.428 40.7365 12.496 40.7365 12.576V13.44C40.7365 13.528 40.7085 13.6 40.6525 13.656C40.5965 13.704 40.5245 13.728 40.4365 13.728H39.3445ZM45.0886 23.64C44.5046 23.64 44.0246 23.564 43.6486 23.412C43.2726 23.26 42.9766 23.076 42.7606 22.86C42.5446 22.644 42.3886 22.428 42.2926 22.212C42.2046 22.004 42.1566 21.84 42.1486 21.72C42.1406 21.64 42.1646 21.568 42.2206 21.504C42.2846 21.448 42.3566 21.42 42.4366 21.42H43.4806C43.5606 21.42 43.6246 21.436 43.6726 21.468C43.7206 21.508 43.7606 21.576 43.7926 21.672C43.8406 21.776 43.9046 21.888 43.9846 22.008C44.0646 22.128 44.1846 22.228 44.3446 22.308C44.5126 22.396 44.7406 22.44 45.0286 22.44C45.3326 22.44 45.5886 22.396 45.7966 22.308C46.0046 22.22 46.1606 22.072 46.2646 21.864C46.3766 21.656 46.4326 21.368 46.4326 21V20.184C46.2406 20.416 45.9926 20.604 45.6886 20.748C45.3926 20.892 45.0246 20.964 44.5846 20.964C44.1526 20.964 43.7806 20.896 43.4686 20.76C43.1566 20.616 42.8966 20.42 42.6886 20.172C42.4806 19.916 42.3206 19.616 42.2086 19.272C42.1046 18.928 42.0446 18.548 42.0286 18.132C42.0206 17.916 42.0206 17.7 42.0286 17.484C42.0446 17.084 42.1046 16.712 42.2086 16.368C42.3126 16.024 42.4686 15.724 42.6766 15.468C42.8926 15.204 43.1566 15 43.4686 14.856C43.7806 14.712 44.1526 14.64 44.5846 14.64C45.0406 14.64 45.4246 14.728 45.7366 14.904C46.0486 15.072 46.3046 15.284 46.5046 15.54V15.06C46.5046 14.972 46.5326 14.9 46.5886 14.844C46.6446 14.788 46.7126 14.76 46.7926 14.76H47.7646C47.8446 14.76 47.9126 14.788 47.9686 14.844C48.0246 14.9 48.0526 14.972 48.0526 15.06L48.0646 20.844C48.0646 21.42 47.9566 21.916 47.7406 22.332C47.5246 22.748 47.1966 23.068 46.7566 23.292C46.3246 23.524 45.7686 23.64 45.0886 23.64ZM45.0286 19.692C45.3566 19.692 45.6206 19.62 45.8206 19.476C46.0206 19.332 46.1686 19.144 46.2646 18.912C46.3606 18.68 46.4166 18.444 46.4326 18.204C46.4406 18.1 46.4446 17.968 46.4446 17.808C46.4446 17.648 46.4406 17.52 46.4326 17.424C46.4166 17.176 46.3606 16.94 46.2646 16.716C46.1686 16.484 46.0206 16.296 45.8206 16.152C45.6206 16 45.3566 15.924 45.0286 15.924C44.7006 15.924 44.4366 16 44.2366 16.152C44.0366 16.296 43.8926 16.488 43.8046 16.728C43.7246 16.968 43.6766 17.232 43.6606 17.52C43.6446 17.712 43.6446 17.908 43.6606 18.108C43.6766 18.388 43.7246 18.652 43.8046 18.9C43.8926 19.14 44.0366 19.332 44.2366 19.476C44.4366 19.62 44.7006 19.692 45.0286 19.692ZM51.9791 21.12C51.4911 21.12 51.0671 21.012 50.7071 20.796C50.3551 20.572 50.0831 20.26 49.8911 19.86C49.6991 19.452 49.6031 18.972 49.6031 18.42V15.048C49.6031 14.968 49.6311 14.9 49.6871 14.844C49.7431 14.788 49.8111 14.76 49.8911 14.76H50.9471C51.0351 14.76 51.1031 14.788 51.1511 14.844C51.2071 14.9 51.2351 14.968 51.2351 15.048V18.348C51.2351 19.34 51.6711 19.836 52.5431 19.836C52.9591 19.836 53.2871 19.704 53.5271 19.44C53.7751 19.176 53.8991 18.812 53.8991 18.348V15.048C53.8991 14.968 53.9271 14.9 53.9831 14.844C54.0391 14.788 54.1071 14.76 54.1871 14.76H55.2431C55.3231 14.76 55.3911 14.788 55.4471 14.844C55.5031 14.9 55.5311 14.968 55.5311 15.048V20.712C55.5311 20.792 55.5031 20.86 55.4471 20.916C55.3911 20.972 55.3231 21 55.2431 21H54.2711C54.1831 21 54.1111 20.972 54.0551 20.916C54.0071 20.86 53.9831 20.792 53.9831 20.712V20.22C53.7671 20.5 53.4991 20.72 53.1791 20.88C52.8591 21.04 52.4591 21.12 51.9791 21.12ZM57.4042 21C57.3242 21 57.2562 20.972 57.2002 20.916C57.1442 20.86 57.1162 20.792 57.1162 20.712V15.06C57.1162 14.972 57.1442 14.9 57.2002 14.844C57.2562 14.788 57.3242 14.76 57.4042 14.76H58.3762C58.4562 14.76 58.5242 14.788 58.5802 14.844C58.6442 14.9 58.6762 14.972 58.6762 15.06V15.552C58.8602 15.296 59.0962 15.1 59.3842 14.964C59.6802 14.828 60.0202 14.76 60.4042 14.76H60.8962C60.9842 14.76 61.0522 14.788 61.1002 14.844C61.1562 14.9 61.1842 14.968 61.1842 15.048V15.912C61.1842 15.992 61.1562 16.06 61.1002 16.116C61.0522 16.172 60.9842 16.2 60.8962 16.2H59.9602C59.5762 16.2 59.2762 16.308 59.0602 16.524C58.8522 16.74 58.7482 17.036 58.7482 17.412V20.712C58.7482 20.792 58.7202 20.86 58.6642 20.916C58.6082 20.972 58.5362 21 58.4482 21H57.4042ZM64.7261 21.12C63.8381 21.12 63.1341 20.864 62.6141 20.352C62.0941 19.84 61.8141 19.112 61.7741 18.168C61.7661 18.088 61.7621 17.988 61.7621 17.868C61.7621 17.74 61.7661 17.64 61.7741 17.568C61.8061 16.968 61.9421 16.448 62.1821 16.008C62.4301 15.568 62.7701 15.232 63.2021 15C63.6341 14.76 64.1421 14.64 64.7261 14.64C65.3741 14.64 65.9181 14.776 66.3581 15.048C66.7981 15.312 67.1301 15.684 67.3541 16.164C67.5781 16.636 67.6901 17.184 67.6901 17.808V18.06C67.6901 18.14 67.6621 18.208 67.6061 18.264C67.5501 18.32 67.4781 18.348 67.3901 18.348H63.4061C63.4061 18.348 63.4061 18.36 63.4061 18.384C63.4061 18.408 63.4061 18.428 63.4061 18.444C63.4141 18.724 63.4661 18.984 63.5621 19.224C63.6661 19.456 63.8141 19.644 64.0061 19.788C64.2061 19.932 64.4421 20.004 64.7141 20.004C64.9381 20.004 65.1261 19.972 65.2781 19.908C65.4301 19.836 65.5541 19.756 65.6501 19.668C65.7461 19.58 65.8141 19.508 65.8541 19.452C65.9261 19.356 65.9821 19.3 66.0221 19.284C66.0701 19.26 66.1381 19.248 66.2261 19.248H67.2581C67.3381 19.248 67.4021 19.272 67.4501 19.32C67.5061 19.368 67.5301 19.428 67.5221 19.5C67.5141 19.628 67.4461 19.784 67.3181 19.968C67.1981 20.152 67.0221 20.332 66.7901 20.508C66.5581 20.684 66.2661 20.832 65.9141 20.952C65.5701 21.064 65.1741 21.12 64.7261 21.12ZM63.4061 17.34H66.0581V17.304C66.0581 16.992 66.0061 16.72 65.9021 16.488C65.7981 16.256 65.6461 16.072 65.4461 15.936C65.2461 15.8 65.0061 15.732 64.7261 15.732C64.4461 15.732 64.2061 15.8 64.0061 15.936C63.8061 16.072 63.6541 16.256 63.5501 16.488C63.4541 16.72 63.4061 16.992 63.4061 17.304V17.34Z" fill="#12AAA1"/>
<path d="M33.605 28.05C33.295 28.05 33.035 28.005 32.825 27.915C32.6183 27.8217 32.46 27.7017 32.35 27.555C32.2433 27.405 32.1867 27.2483 32.18 27.085C32.18 27.055 32.19 27.03 32.21 27.01C32.23 26.99 32.255 26.98 32.285 26.98H32.73C32.7733 26.98 32.805 26.99 32.825 27.01C32.8483 27.0267 32.8683 27.0483 32.885 27.075C32.905 27.1383 32.9433 27.2017 33 27.265C33.0567 27.325 33.1333 27.375 33.23 27.415C33.33 27.455 33.455 27.475 33.605 27.475C33.845 27.475 34.0233 27.435 34.14 27.355C34.26 27.275 34.32 27.1667 34.32 27.03C34.32 26.9333 34.2883 26.8567 34.225 26.8C34.1617 26.74 34.0633 26.6867 33.93 26.64C33.8 26.59 33.6267 26.5383 33.41 26.485C33.16 26.425 32.95 26.3533 32.78 26.27C32.6133 26.1833 32.4867 26.075 32.4 25.945C32.3167 25.815 32.275 25.65 32.275 25.45C32.275 25.2567 32.3267 25.085 32.43 24.935C32.5367 24.785 32.6867 24.6667 32.88 24.58C33.0767 24.4933 33.31 24.45 33.58 24.45C33.7967 24.45 33.9883 24.48 34.155 24.54C34.3217 24.5967 34.46 24.6733 34.57 24.77C34.68 24.8633 34.7633 24.965 34.82 25.075C34.88 25.1817 34.9117 25.2867 34.915 25.39C34.915 25.4167 34.905 25.4417 34.885 25.465C34.8683 25.485 34.8433 25.495 34.81 25.495H34.345C34.3183 25.495 34.2917 25.4883 34.265 25.475C34.2383 25.4617 34.2167 25.4367 34.2 25.4C34.18 25.2967 34.115 25.2083 34.005 25.135C33.895 25.0617 33.7533 25.025 33.58 25.025C33.4 25.025 33.255 25.0583 33.145 25.125C33.035 25.1917 32.98 25.295 32.98 25.435C32.98 25.5283 33.0067 25.6067 33.06 25.67C33.1167 25.73 33.205 25.7833 33.325 25.83C33.4483 25.8767 33.61 25.9267 33.81 25.98C34.0933 26.0433 34.325 26.1167 34.505 26.2C34.685 26.2833 34.8167 26.39 34.9 26.52C34.9833 26.6467 35.025 26.8083 35.025 27.005C35.025 27.225 34.965 27.4133 34.845 27.57C34.7283 27.7233 34.5633 27.8417 34.35 27.925C34.1367 28.0083 33.8883 28.05 33.605 28.05ZM36.713 28C36.513 28 36.3447 27.965 36.208 27.895C36.0713 27.825 35.9697 27.7217 35.903 27.585C35.8363 27.445 35.803 27.2717 35.803 27.065V25.93H35.408C35.3747 25.93 35.3463 25.9183 35.323 25.895C35.2997 25.8717 35.288 25.8433 35.288 25.81V25.52C35.288 25.4867 35.2997 25.4583 35.323 25.435C35.3463 25.4117 35.3747 25.4 35.408 25.4H35.803V24.57C35.803 24.5367 35.813 24.5083 35.833 24.485C35.8563 24.4617 35.8863 24.45 35.923 24.45H36.328C36.3613 24.45 36.3897 24.4617 36.413 24.485C36.4363 24.5083 36.448 24.5367 36.448 24.57V25.4H37.073C37.1063 25.4 37.1347 25.4117 37.158 25.435C37.1813 25.4583 37.193 25.4867 37.193 25.52V25.81C37.193 25.8433 37.1813 25.8717 37.158 25.895C37.1347 25.9183 37.1063 25.93 37.073 25.93H36.448V27.015C36.448 27.1517 36.4713 27.2583 36.518 27.335C36.568 27.4117 36.653 27.45 36.773 27.45H37.118C37.1513 27.45 37.1797 27.4617 37.203 27.485C37.2263 27.5083 37.238 27.5367 37.238 27.57V27.88C37.238 27.9133 37.2263 27.9417 37.203 27.965C37.1797 27.9883 37.1513 28 37.118 28H36.713ZM38.4366 28.05C38.2632 28.05 38.1066 28.0167 37.9666 27.95C37.8266 27.88 37.7149 27.7883 37.6316 27.675C37.5516 27.5583 37.5116 27.4283 37.5116 27.285C37.5116 27.0517 37.6049 26.8667 37.7916 26.73C37.9816 26.59 38.2316 26.4967 38.5416 26.45L39.2266 26.35V26.245C39.2266 26.105 39.1916 25.9967 39.1216 25.92C39.0516 25.8433 38.9316 25.805 38.7616 25.805C38.6416 25.805 38.5432 25.83 38.4666 25.88C38.3932 25.9267 38.3382 25.99 38.3016 26.07C38.2749 26.1133 38.2366 26.135 38.1866 26.135H37.7916C37.7549 26.135 37.7266 26.125 37.7066 26.105C37.6899 26.085 37.6816 26.0583 37.6816 26.025C37.6849 25.9717 37.7066 25.9067 37.7466 25.83C37.7866 25.7533 37.8499 25.68 37.9366 25.61C38.0232 25.5367 38.1349 25.475 38.2716 25.425C38.4082 25.375 38.5732 25.35 38.7666 25.35C38.9766 25.35 39.1532 25.3767 39.2966 25.43C39.4432 25.48 39.5599 25.5483 39.6466 25.635C39.7332 25.7217 39.7966 25.8233 39.8366 25.94C39.8766 26.0567 39.8966 26.18 39.8966 26.31V27.88C39.8966 27.9133 39.8849 27.9417 39.8616 27.965C39.8382 27.9883 39.8099 28 39.7766 28H39.3716C39.3349 28 39.3049 27.9883 39.2816 27.965C39.2616 27.9417 39.2516 27.9133 39.2516 27.88V27.685C39.2082 27.7483 39.1499 27.8083 39.0766 27.865C39.0032 27.9183 38.9132 27.9633 38.8066 28C38.7032 28.0333 38.5799 28.05 38.4366 28.05ZM38.6066 27.575C38.7232 27.575 38.8282 27.55 38.9216 27.5C39.0182 27.45 39.0932 27.3733 39.1466 27.27C39.2032 27.1633 39.2316 27.03 39.2316 26.87V26.765L38.7316 26.845C38.5349 26.875 38.3882 26.9233 38.2916 26.99C38.1949 27.0567 38.1466 27.1383 38.1466 27.235C38.1466 27.3083 38.1682 27.3717 38.2116 27.425C38.2582 27.475 38.3166 27.5133 38.3866 27.54C38.4566 27.5633 38.5299 27.575 38.6066 27.575ZM41.663 28.05C41.423 28.05 41.2113 28.005 41.028 27.915C40.848 27.825 40.7063 27.695 40.603 27.525C40.503 27.3517 40.448 27.1433 40.438 26.9C40.4347 26.85 40.433 26.785 40.433 26.705C40.433 26.6217 40.4347 26.5533 40.438 26.5C40.448 26.2567 40.503 26.05 40.603 25.88C40.7063 25.7067 40.848 25.575 41.028 25.485C41.2113 25.395 41.423 25.35 41.663 25.35C41.8763 25.35 42.058 25.38 42.208 25.44C42.358 25.5 42.4813 25.575 42.578 25.665C42.6747 25.755 42.7463 25.85 42.793 25.95C42.843 26.0467 42.8697 26.135 42.873 26.215C42.8763 26.2517 42.8647 26.2817 42.838 26.305C42.8147 26.325 42.7863 26.335 42.753 26.335H42.313C42.2797 26.335 42.253 26.3267 42.233 26.31C42.2163 26.2933 42.1997 26.2683 42.183 26.235C42.133 26.1017 42.0663 26.0083 41.983 25.955C41.903 25.8983 41.7997 25.87 41.673 25.87C41.5063 25.87 41.373 25.9233 41.273 26.03C41.1763 26.1333 41.1247 26.2983 41.118 26.525C41.1113 26.6517 41.1113 26.7683 41.118 26.875C41.1247 27.105 41.1763 27.2717 41.273 27.375C41.373 27.4783 41.5063 27.53 41.673 27.53C41.803 27.53 41.908 27.5033 41.988 27.45C42.068 27.3933 42.133 27.2983 42.183 27.165C42.1997 27.1317 42.2163 27.1067 42.233 27.09C42.253 27.0733 42.2797 27.065 42.313 27.065H42.753C42.7863 27.065 42.8147 27.0767 42.838 27.1C42.8647 27.12 42.8763 27.1483 42.873 27.185C42.8697 27.245 42.853 27.3133 42.823 27.39C42.7963 27.4633 42.7513 27.54 42.688 27.62C42.628 27.6967 42.5513 27.7683 42.458 27.835C42.3647 27.8983 42.2513 27.95 42.118 27.99C41.988 28.03 41.8363 28.05 41.663 28.05ZM43.5195 28C43.4861 28 43.4578 27.9883 43.4345 27.965C43.4111 27.9417 43.3995 27.9133 43.3995 27.88V24.57C43.3995 24.5367 43.4111 24.5083 43.4345 24.485C43.4578 24.4617 43.4861 24.45 43.5195 24.45H43.9245C43.9611 24.45 43.9895 24.4617 44.0095 24.485C44.0328 24.5083 44.0445 24.5367 44.0445 24.57V26.28L44.8845 25.485C44.9145 25.4583 44.9411 25.4383 44.9645 25.425C44.9878 25.4083 45.0228 25.4 45.0695 25.4H45.5345C45.5678 25.4 45.5945 25.41 45.6145 25.43C45.6345 25.45 45.6445 25.4767 45.6445 25.51C45.6445 25.5233 45.6411 25.5383 45.6345 25.555C45.6278 25.5717 45.6145 25.5867 45.5945 25.6L44.5645 26.565L45.7195 27.805C45.7528 27.8383 45.7695 27.8667 45.7695 27.89C45.7695 27.9233 45.7578 27.95 45.7345 27.97C45.7145 27.99 45.6895 28 45.6595 28H45.1845C45.1345 28 45.0978 27.9933 45.0745 27.98C45.0545 27.9633 45.0295 27.9417 44.9995 27.915L44.0445 26.91V27.88C44.0445 27.9133 44.0328 27.9417 44.0095 27.965C43.9895 27.9883 43.9611 28 43.9245 28H43.5195Z" fill="#CFD0DB"/>
</svg>
