<svg width="33" height="34" viewBox="0 0 33 34" fill="none" xmlns="http://www.w3.org/2000/svg">
<g clip-path="url(#clip0_5_193)">
<path d="M10.1867 30.2182C22.4029 30.2182 29.0866 20.0947 29.0866 11.3184C29.0866 11.0338 29.0802 10.7428 29.0676 10.4582C30.3678 9.51798 31.4898 8.35333 32.381 7.01903C31.1701 7.55777 29.8844 7.90962 28.568 8.06255C29.9541 7.23167 30.992 5.9264 31.4892 4.38871C30.1852 5.16152 28.7591 5.70667 27.2721 6.0008C26.2702 4.93621 24.9455 4.23132 23.5027 3.99512C22.06 3.75892 20.5797 4.00456 19.2906 4.69407C18.0015 5.38358 16.9754 6.47854 16.3711 7.80968C15.7667 9.14081 15.6176 10.634 15.947 12.0583C13.3065 11.9258 10.7234 11.2399 8.36505 10.045C6.0067 8.85016 3.92578 7.17302 2.25718 5.12234C1.40911 6.58451 1.1496 8.31473 1.53139 9.96137C1.91318 11.608 2.90762 13.0475 4.31261 13.9873C3.25783 13.9538 2.22616 13.6698 1.30283 13.1588V13.241C1.30188 14.7754 1.83235 16.2628 2.80407 17.4504C3.77578 18.6379 5.12877 19.4523 6.63304 19.7551C5.65595 20.0224 4.63045 20.0614 3.6359 19.869C4.06038 21.1886 4.88625 22.3428 5.99826 23.1704C7.11027 23.9981 8.45294 24.4579 9.83888 24.4858C7.48597 26.334 4.57944 27.3365 1.58743 27.3317C1.05682 27.3309 0.526729 27.2984 0 27.2344C3.03957 29.1844 6.5754 30.2201 10.1867 30.2182Z" fill="#777777"/>
</g>
<defs>
<clipPath id="clip0_5_193">
<rect width="32.381" height="32.381" fill="white" transform="translate(0 0.873047)"/>
</clipPath>
</defs>
</svg>
